<svg width="380" height="100" viewBox="0 0 380 100" fill="none" xmlns="http://www.w3.org/2000/svg">
<path d="M39.1816 19C36.8722 19 35 20.8722 35 23.1816V76.1484C35 78.4578 36.8722 80.33 39.1816 80.33H75.4224C77.7318 80.33 79.604 78.4578 79.604 76.1484V35.7264L62.8775 19H39.1816Z" fill="#F4B70A"/>
<path d="M79.6017 50.0144V35.7273L77.1625 33.2881H65.3991C64.4677 33.2881 64.0013 34.4141 64.6599 35.0727L79.6017 50.0144Z" fill="url(#paint0_linear_816_5307)"/>
<path d="M62.8828 19L79.6093 35.7264H67.0644C64.755 35.7264 62.8828 33.8542 62.8828 31.5448V19Z" fill="#FADC87"/>
<path fill-rule="evenodd" clip-rule="evenodd" d="M47.5501 46.8779C46.7803 46.8779 46.1562 47.502 46.1562 48.2718V67.7859C46.1562 68.5557 46.7803 69.1797 47.5501 69.1797H67.0644C67.8342 69.1797 68.4583 68.5557 68.4583 67.7859V48.2718C68.4583 47.502 67.8342 46.8779 67.0644 46.8779H47.5501ZM65.6705 53.1503H48.944V62.9074H65.6705V53.1503Z" fill="white"/>
<path d="M126.458 49.5662V45.1159H141.353C141.505 45.9002 141.595 46.8337 141.595 47.8443C141.595 51.1821 140.681 55.3141 137.742 58.2549C134.881 61.2351 131.227 62.824 126.381 62.824C117.403 62.824 109.855 55.5126 109.855 46.5327C109.855 37.5526 117.403 30.2412 126.381 30.2412C131.346 30.2412 134.881 32.1886 137.543 34.7316L134.405 37.871C132.497 36.0827 129.916 34.6922 126.381 34.6922C119.827 34.6922 114.702 39.9767 114.702 46.5335C114.702 53.0902 119.827 58.3747 126.381 58.3747C130.632 58.3747 133.055 56.666 134.603 55.1164C135.866 53.854 136.697 52.0427 137.02 49.567L126.458 49.5662Z" fill="#55585D"/>
<path fill-rule="evenodd" clip-rule="evenodd" d="M164.293 52.3345C164.293 58.3744 159.565 62.8247 153.766 62.8247C147.966 62.8247 143.239 58.3744 143.239 52.3345C143.239 46.2551 147.966 41.8443 153.766 41.8443C159.566 41.8443 164.293 46.2543 164.293 52.3345ZM159.685 52.3345C159.685 48.5594 156.945 45.977 153.766 45.977C150.589 45.977 147.847 48.5594 147.847 52.3345C147.847 56.0693 150.587 58.6919 153.766 58.6919C156.945 58.6919 159.685 56.0693 159.685 52.3345Z" fill="#55585D"/>
<path fill-rule="evenodd" clip-rule="evenodd" d="M187.259 52.3345C187.259 58.3744 182.532 62.8247 176.732 62.8247C170.932 62.8247 166.205 58.3744 166.205 52.3345C166.205 46.2551 170.932 41.8443 176.732 41.8443C182.532 41.8443 187.259 46.2543 187.259 52.3345ZM182.651 52.3345C182.651 48.5594 179.911 45.977 176.732 45.977C173.555 45.977 170.813 48.5594 170.813 52.3345C170.813 56.0693 173.554 58.6919 176.732 58.6919C179.911 58.6919 182.651 56.0693 182.651 52.3345Z" fill="#55585D"/>
<path fill-rule="evenodd" clip-rule="evenodd" d="M209.27 42.4794V61.3138C209.27 69.0625 204.701 72.2412 199.298 72.2412C194.214 72.2412 191.156 68.8238 190.003 66.0429L194.015 64.3736C194.73 66.0822 196.478 68.1085 199.298 68.1085C202.755 68.1085 204.9 65.9625 204.9 61.9495V60.4393H204.741C203.708 61.7108 201.722 62.8231 199.219 62.8231C193.975 62.8231 189.168 58.254 189.168 52.3732C189.168 46.4522 193.975 41.8436 199.219 41.8436C201.722 41.8436 203.708 42.956 204.741 44.1881H204.9V42.4794H209.27ZM205.217 52.374C205.217 48.6785 202.754 45.9764 199.616 45.9764C196.438 45.9764 193.776 48.6785 193.776 52.374C193.776 56.0293 196.438 58.6921 199.616 58.6921C202.755 58.6921 205.217 56.0293 205.217 52.374Z" fill="#55585D"/>
<path d="M217.075 31.4576V62.189H212.468V31.4576H217.075Z" fill="#55585D"/>
<path fill-rule="evenodd" clip-rule="evenodd" d="M234.869 55.7909L238.444 58.1747C237.291 59.8834 234.511 62.8234 229.704 62.8234C223.745 62.8234 219.296 58.2141 219.296 52.3332C219.296 46.0947 223.785 41.843 229.187 41.843C234.63 41.843 237.291 46.1743 238.166 48.5187L238.642 49.7107L224.619 55.5119C225.692 57.6177 227.361 58.6907 229.704 58.6907C232.048 58.6923 233.677 57.5397 234.869 55.7909ZM223.864 52.0166L233.239 48.1225C232.722 46.8117 231.173 45.8978 229.346 45.8978C227.003 45.897 223.745 47.9634 223.864 52.0166Z" fill="#55585D"/>
<path d="M251.556 60.6477C253.395 61.9877 255.418 62.6577 257.625 62.6577C259.123 62.6577 260.581 62.3686 262 61.7906C263.419 61.2126 264.588 60.3061 265.508 59.0712C266.454 57.8363 266.927 56.3124 266.927 54.4994C266.927 52.2661 266.257 50.5057 264.917 49.2182C263.577 47.9045 261.711 46.8141 259.32 45.9471L257.468 45.3165C255.707 44.7122 254.394 44.0684 253.527 43.3853C252.659 42.6759 252.226 41.7694 252.226 40.6659C252.226 39.431 252.738 38.4063 253.763 37.5918C254.788 36.7773 256.023 36.37 257.468 36.37C258.992 36.37 260.213 36.7641 261.133 37.5524C262.079 38.3406 262.683 39.2208 262.946 40.1929L266.099 38.8529C265.81 38.0122 265.298 37.1582 264.562 36.2912C263.852 35.4241 262.893 34.6884 261.685 34.0841C260.476 33.4798 259.057 33.1776 257.428 33.1776C255.799 33.1776 254.328 33.5192 253.014 34.2024C251.7 34.8855 250.676 35.8051 249.94 36.9612C249.204 38.091 248.837 39.3259 248.837 40.6659C248.837 42.7153 249.467 44.318 250.728 45.4741C251.989 46.6302 253.618 47.563 255.615 48.2724L257.389 48.903C259.57 49.6386 261.133 50.44 262.079 51.3071C263.051 52.1479 263.537 53.2251 263.537 54.5388C263.537 56.0628 262.972 57.2714 261.842 58.1647C260.713 59.0318 259.333 59.4653 257.704 59.4653C256.075 59.4653 254.656 58.9267 253.448 57.8494C252.239 56.7722 251.411 55.3928 250.965 53.7112L247.772 55.0118C248.456 57.429 249.717 59.3077 251.556 60.6477Z" fill="#55585D"/>
<path d="M274.024 33.8082H270.674V62.0271H274.024V33.8082Z" fill="#55585D"/>
<path d="M280.381 38.2224C279.724 38.2224 279.159 37.9859 278.686 37.5129C278.213 37.04 277.977 36.4751 277.977 35.8182C277.977 35.1614 278.213 34.6096 278.686 34.1629C279.159 33.69 279.724 33.4535 280.381 33.4535C281.038 33.4535 281.603 33.69 282.076 34.1629C282.549 34.6096 282.785 35.1614 282.785 35.8182C282.785 36.4751 282.549 37.04 282.076 37.5129C281.629 37.9859 281.064 38.2224 280.381 38.2224Z" fill="#55585D"/>
<path d="M282.036 41.9271V62.0271H278.726V41.9271H282.036Z" fill="#55585D"/>
<path fill-rule="evenodd" clip-rule="evenodd" d="M290.165 61.2783C291.636 62.1979 293.265 62.6577 295.052 62.6577C296.602 62.6577 297.981 62.3161 299.19 61.633C300.399 60.9235 301.318 60.0696 301.949 59.0712H302.107V62.0271H305.299V33.8082H301.949V42.1241L302.107 44.9224H301.949C301.318 43.8977 300.399 43.0437 299.19 42.3606C297.981 41.6512 296.602 41.2965 295.052 41.2965C293.265 41.2965 291.636 41.7563 290.165 42.6759C288.72 43.5955 287.577 44.8698 286.736 46.4988C285.895 48.1279 285.475 49.9539 285.475 51.9771C285.475 54.0265 285.895 55.8657 286.736 57.4947C287.577 59.0975 288.72 60.3586 290.165 61.2783ZM298.717 58.6771C297.719 59.3077 296.628 59.623 295.446 59.623C294.29 59.623 293.199 59.3077 292.175 58.6771C291.15 58.0465 290.322 57.1532 289.692 55.9971C289.088 54.8147 288.785 53.4747 288.785 51.9771C288.785 50.4794 289.088 49.1526 289.692 47.9965C290.322 46.8141 291.15 45.9077 292.175 45.2771C293.199 44.6465 294.29 44.3312 295.446 44.3312C296.628 44.3312 297.719 44.6465 298.717 45.2771C299.742 45.9077 300.556 46.801 301.161 47.9571C301.791 49.1131 302.107 50.4531 302.107 51.9771C302.107 53.501 301.791 54.841 301.161 55.9971C300.556 57.1532 299.742 58.0465 298.717 58.6771Z" fill="#55585D"/>
<path fill-rule="evenodd" clip-rule="evenodd" d="M318.225 62.6577C316.307 62.6577 314.586 62.1979 313.062 61.2783C311.538 60.3586 310.342 59.0975 309.475 57.4947C308.635 55.8657 308.214 54.0396 308.214 52.0165C308.214 50.0722 308.608 48.2855 309.396 46.6565C310.211 45.0275 311.354 43.7269 312.825 42.7547C314.297 41.7826 316.005 41.2965 317.949 41.2965C319.919 41.2965 321.627 41.7431 323.072 42.6365C324.518 43.5035 325.621 44.7122 326.383 46.2624C327.171 47.8126 327.565 49.5861 327.565 51.583C327.565 51.9771 327.526 52.3186 327.447 52.6077H311.564C311.643 54.1316 312.011 55.419 312.668 56.47C313.325 57.521 314.152 58.3092 315.151 58.8347C316.175 59.3602 317.239 59.623 318.343 59.623C320.918 59.623 322.902 58.4143 324.294 55.9971L327.132 57.3765C326.265 59.0055 325.082 60.293 323.585 61.2388C322.113 62.1847 320.327 62.6577 318.225 62.6577ZM324.018 49.8488C323.966 49.008 323.729 48.1673 323.309 47.3265C322.889 46.4857 322.219 45.7763 321.299 45.1982C320.406 44.6202 319.276 44.3312 317.909 44.3312C316.333 44.3312 314.993 44.8435 313.889 45.8682C312.812 46.8667 312.103 48.1935 311.761 49.8488H324.018Z" fill="#55585D"/>
<path d="M332.517 61.16C333.962 62.1585 335.762 62.6577 337.917 62.6577C339.388 62.6577 340.728 62.4081 341.937 61.9088C343.145 61.4096 344.104 60.7002 344.814 59.7806C345.523 58.8347 345.878 57.7443 345.878 56.5094C345.878 55.0906 345.379 53.8951 344.38 52.923C343.382 51.9245 341.897 51.1757 339.927 50.6765L337.01 49.9277C335.854 49.6386 334.987 49.2708 334.409 48.8241C333.831 48.3512 333.542 47.7469 333.542 47.0112C333.542 46.2229 333.949 45.5792 334.764 45.08C335.605 44.5545 336.577 44.2918 337.68 44.2918C339.966 44.2918 341.556 45.1851 342.449 46.9718L345.366 45.6318C344.788 44.2655 343.802 43.2014 342.41 42.4394C341.043 41.6775 339.48 41.2965 337.72 41.2965C336.38 41.2965 335.132 41.5329 333.976 42.0059C332.82 42.4788 331.887 43.162 331.177 44.0553C330.494 44.9224 330.153 45.9339 330.153 47.09C330.153 48.5877 330.665 49.8094 331.69 50.7553C332.714 51.7012 334.028 52.3712 335.631 52.7653L338.074 53.3959C339.598 53.7637 340.715 54.2104 341.424 54.7359C342.134 55.2351 342.489 55.9051 342.489 56.7459C342.489 57.6918 342.042 58.4275 341.149 58.953C340.255 59.4522 339.178 59.7018 337.917 59.7018C336.734 59.7018 335.644 59.3733 334.646 58.7165C333.673 58.0596 332.938 57.1269 332.439 55.9183L329.443 57.2583C330.048 58.8347 331.072 60.1353 332.517 61.16Z" fill="#55585D"/>
<defs>
<linearGradient id="paint0_linear_816_5307" x1="71.9766" y1="50.0144" x2="71.9766" y2="32.9396" gradientUnits="userSpaceOnUse">
<stop stop-color="#F4B70A"/>
<stop offset="1" stop-color="#E2930A"/>
</linearGradient>
</defs>
</svg>
